<svg width="2200" height="2200" viewBox="0 0 2200 2200" fill="none" xmlns="http://www.w3.org/2000/svg">
<path d="M1234.2 40.3081L1188.84 33.6271L1193.8 0L1327.07 19.6296L1322.11 53.2567L1276.92 46.6L1240.36 294.518L1197.64 288.226L1234.2 40.3081Z" fill="url(#paint0_radial_1379_599)"/>
<path fill-rule="evenodd" clip-rule="evenodd" d="M1378.2 332.958C1382.89 335.615 1387.36 337.769 1391.61 339.418C1395.44 340.908 1399.88 342.214 1404.93 343.343C1409.98 344.469 1415.3 344.871 1420.92 344.548C1426.67 344.161 1432.59 342.888 1438.68 340.724C1444.91 338.497 1451.06 334.807 1457.12 329.652C1463.22 324.395 1469.18 317.477 1475.03 308.903C1480.91 300.222 1486.4 289.309 1491.52 276.16L1528.06 182.203C1533.34 168.64 1536.74 156.674 1538.27 146.305C1539.94 135.87 1540.27 126.761 1539.24 118.972C1538.26 111.082 1536.21 104.388 1533.1 98.8897C1530.03 93.2881 1526.43 88.6098 1522.28 84.8546C1518.28 81.0361 1513.95 77.9222 1509.28 75.5129C1504.76 73.0403 1500.53 71.0395 1496.59 69.51C1492.45 67.9001 1487.82 66.4598 1482.71 65.1895C1477.6 63.919 1472.16 63.3532 1466.38 63.492C1460.74 63.5675 1454.9 64.6351 1448.86 66.6951C1442.91 68.795 1436.91 72.4222 1430.85 77.5762C1424.83 82.627 1418.88 89.492 1413 98.1719C1407.27 106.788 1401.8 117.773 1396.61 131.129L1360.06 225.086C1354.91 238.337 1351.49 250.18 1349.82 260.613C1348.19 270.943 1347.81 280.034 1348.69 287.885C1349.68 295.776 1351.61 302.606 1354.5 308.373C1357.52 314.078 1361.05 318.965 1365.07 323.03C1369.09 327.095 1373.47 330.405 1378.2 332.958ZM1414.43 311.1C1411 311.319 1407.32 310.663 1403.39 309.135C1399.35 307.565 1396.09 305.524 1393.61 303.011C1391.12 300.499 1389.54 297.203 1388.87 293.124C1388.19 289.047 1388.37 284.115 1389.43 278.33C1390.64 272.479 1392.85 265.413 1396.07 257.13L1443 136.464C1446.31 127.974 1449.53 121.063 1452.68 115.733C1455.93 110.44 1459.2 106.468 1462.5 103.816C1465.84 101.061 1469.29 99.5421 1472.86 99.2598C1476.43 98.9775 1480.23 99.6211 1484.27 101.191C1488.21 102.72 1491.34 104.773 1493.68 107.349C1496.12 109.966 1497.59 113.396 1498.08 117.641C1498.72 121.823 1498.4 126.941 1497.12 132.997C1495.94 139.094 1493.7 146.387 1490.4 154.877L1443.46 275.543C1440.24 283.826 1437.04 290.51 1433.87 295.594C1430.85 300.617 1427.71 304.401 1424.45 306.951C1421.3 309.537 1417.96 310.923 1414.43 311.1Z" fill="url(#paint1_radial_1379_599)"/>
<path fill-rule="evenodd" clip-rule="evenodd" d="M1682.42 163.012L1720.65 190.066C1725.01 193.146 1729.64 196.697 1734.56 200.719C1739.56 204.805 1744.13 209.4 1748.28 214.51C1752.57 219.592 1756.13 225.24 1758.95 231.453C1761.86 237.73 1763.44 244.629 1763.69 252.157C1764.03 259.749 1762.7 268.063 1759.7 277.102C1756.77 286.051 1751.58 295.783 1744.13 306.3L1739.98 312.147C1727.46 329.825 1714.71 342.444 1701.73 350.001C1688.82 357.465 1675.68 360.15 1662.33 358.05L1633.81 477.31L1596.53 450.93L1627.2 342.178L1614 332.839L1552.45 419.736L1517.89 395.283L1682.42 163.012ZM1637.32 311.164C1643.49 315.527 1649.19 318.539 1654.41 320.195C1659.64 321.851 1664.69 322.024 1669.57 320.714C1674.52 319.31 1679.44 316.398 1684.34 311.974C1689.31 307.458 1694.56 301.304 1700.08 293.506L1713.08 275.147C1717.32 269.164 1720.44 263.611 1722.43 258.49C1724.43 253.367 1725.1 248.472 1724.46 243.799C1723.92 239.192 1721.99 234.699 1718.69 230.322C1715.39 225.948 1710.52 221.48 1704.08 216.923L1698.77 213.167L1632.02 307.408L1637.32 311.164Z" fill="url(#paint2_radial_1379_599)"/>
<path d="M1919.94 365.029L1891.92 332.193L1675.26 516.848L1703.27 549.686L1803.36 464.384L1836.57 503.308L1736.48 588.608L1764.5 621.444L1981.17 436.789L1953.15 403.953L1862.45 481.252L1829.24 442.331L1919.94 365.029Z" fill="url(#paint3_radial_1379_599)"/>
<path fill-rule="evenodd" clip-rule="evenodd" d="M1827.71 737.485C1825.7 733.397 1823.87 728.788 1822.22 723.658C1820.47 718.578 1819.49 713.18 1819.29 707.466C1819.08 701.751 1819.8 695.77 1821.44 689.523C1823.23 683.326 1826.43 676.993 1831.06 670.521C1835.73 664.149 1842.16 657.715 1850.37 651.221C1858.67 644.676 1869.2 638.274 1881.98 632.013L1972.53 587.625C1985.41 581.315 1996.87 576.931 2006.93 574.474C2017.14 572.069 2026.17 571.046 2034.02 571.403C2041.97 571.712 2048.85 573.107 2054.64 575.586C2060.49 578.164 2065.51 581.333 2069.7 585.091C2074.05 588.899 2077.67 593.001 2080.57 597.394C2083.47 601.789 2085.9 605.979 2087.86 609.969C2089.72 613.76 2091.47 618.093 2093.12 622.975C2094.93 627.907 2096 633.13 2096.36 638.649C2096.86 644.216 2096.35 650.099 2094.81 656.298C2093.37 662.445 2090.34 668.758 2085.71 675.23C2081.19 681.652 2074.78 688.136 2066.48 694.681C2058.33 701.273 2047.71 707.775 2034.64 714.183L1944.08 758.571C1931.41 764.784 1919.97 769.093 1909.76 771.498C1899.65 773.854 1890.57 774.903 1882.52 774.642C1874.57 774.334 1867.55 772.887 1861.46 770.308C1855.51 767.778 1850.29 764.709 1845.79 761.097C1841.45 757.536 1837.8 753.635 1834.85 749.388C1831.9 745.143 1829.52 741.175 1827.71 737.485ZM1856.9 723.178C1858.76 726.968 1861.02 729.942 1863.69 732.098C1866.4 734.355 1869.8 735.597 1873.87 735.827C1878 736.157 1882.87 735.499 1888.5 733.852C1894.28 732.258 1901.16 729.505 1909.15 725.592L2025.45 668.583C2033.63 664.572 2040.22 660.723 2045.22 657.035C2050.27 653.448 2053.97 649.899 2056.33 646.389C2058.85 642.931 2060.09 639.414 2060.07 635.838C2060.1 632.359 2059.18 628.726 2057.32 624.936C2055.41 621.046 2053.05 617.998 2050.23 615.791C2047.42 613.584 2043.85 612.365 2039.52 612.133C2035.3 611.851 2030.2 612.558 2024.22 614.251C2018.29 616.043 2011.24 618.944 2003.06 622.955L1886.75 679.964C1878.77 683.877 1872.35 687.578 1867.51 691.068C1862.81 694.61 1859.33 698.111 1857.06 701.571C1854.8 705.031 1853.73 708.523 1853.85 712.052C1853.97 715.58 1854.99 719.288 1856.9 723.178Z" fill="url(#paint4_radial_1379_599)"/>
<path d="M2170.39 847.073L2161.45 804.516L1968.44 845.048C1954.73 847.926 1943.26 851.415 1934.01 855.513C1924.89 859.696 1917.45 864.269 1911.68 869.226C1905.91 874.183 1901.6 879.344 1898.75 884.711C1895.9 890.075 1893.96 895.421 1892.93 900.747C1891.99 906.05 1891.76 911.15 1892.22 916.046C1892.71 921.053 1893.37 925.566 1894.22 929.588C1895.06 933.61 1896.27 938.01 1897.85 942.787C1899.42 947.567 1901.7 952.194 1904.68 956.676C1907.8 961.241 1911.74 965.409 1916.51 969.174C1921.3 973.051 1927.33 976.094 1934.61 978.312C1941.9 980.528 1950.6 981.709 1960.74 981.85C1970.88 981.991 1982.75 980.633 1996.34 977.778L2189.35 937.246L2180.51 895.176L1976.24 938.074C1967.54 939.9 1960.19 940.876 1954.2 940.999C1948.23 941.231 1943.28 940.681 1939.37 939.345C1935.59 938.097 1932.6 936.056 1930.42 933.224C1928.36 930.478 1926.9 927.038 1926.03 922.907C1925.17 918.776 1925.12 915.04 1925.89 911.701C1926.8 908.445 1928.73 905.485 1931.69 902.822C1934.78 900.242 1939.12 897.912 1944.7 895.831C1950.28 893.752 1957.42 891.797 1966.13 889.971L2170.39 847.073Z" fill="url(#paint5_radial_1379_599)"/>
<path d="M2166 1051.23L2165.1 1097.04L1914.41 1092.16L1913.57 1135.3L2164.26 1140.18L2163.37 1185.83L2197.38 1186.49L2200 1051.89L2166 1051.23Z" fill="url(#paint6_radial_1379_599)"/>
<path d="M849.738 59.421L894.896 51.5082L938.197 298.34L980.728 290.888L937.427 44.0558L982.421 36.1718L976.546 2.69213L843.866 25.9411L849.738 59.421Z" fill="url(#paint7_radial_1379_599)"/>
<path fill-rule="evenodd" clip-rule="evenodd" d="M615.498 107.952L658.709 89.8674C663.628 87.8079 669.098 85.7604 675.112 83.7246C681.23 81.646 687.553 80.2035 694.084 79.3975C700.674 78.4459 707.352 78.4211 714.117 79.3233C720.982 80.1828 727.676 82.4994 734.198 86.2732C740.821 90.0038 747.177 95.5339 753.259 102.863C759.3 110.09 764.808 119.646 769.789 131.53L772.559 138.138C780.928 158.119 784.884 175.611 784.422 190.616C783.919 205.519 779.239 218.074 770.383 228.284L856.499 315.62L814.364 333.253L738.308 249.657L723.392 255.899L764.542 354.105L725.482 370.453L615.498 107.952ZM717.349 224.649C724.321 221.732 729.893 218.495 734.068 214.942C738.242 211.388 741.065 207.198 742.535 202.366C743.963 197.434 744.097 191.717 742.941 185.218C741.741 178.614 739.294 170.906 735.602 162.095L726.909 141.348C724.075 134.585 721.014 129.002 717.722 124.6C714.431 120.196 710.634 117.029 706.33 115.096C702.13 113.121 697.298 112.374 691.835 112.854C686.374 113.333 680.003 115.096 672.724 118.142L666.726 120.653L711.351 227.158L717.349 224.649Z" fill="url(#paint8_radial_1379_599)"/>
<path d="M514.252 164.364L428.111 225.293L592.606 457.589L680.108 395.697L660.46 367.953L608.205 404.913L551.864 325.35L591.192 297.533L571.544 269.788L532.218 297.605L483.004 228.107L533.898 192.108L514.252 164.364Z" fill="url(#paint9_radial_1379_599)"/>
<path fill-rule="evenodd" clip-rule="evenodd" d="M243.669 403.81L273.048 371.504C277.384 366.738 282.034 361.954 286.997 357.158C291.961 352.36 297.183 348.022 302.664 344.143C308.143 340.265 313.933 337.118 320.034 334.705C326.052 332.216 332.286 330.974 338.74 330.981C345.265 330.906 352.021 332.314 359.005 335.205C365.979 337.94 373.126 342.63 380.447 349.28L390.687 358.582C396.28 363.662 400.673 369.154 403.864 375.057C407.133 380.879 409.38 386.746 410.606 392.665C411.751 398.507 411.984 404.197 411.303 409.734C410.54 415.196 408.965 420.069 406.573 424.35L407.559 425.246C418.944 416.527 431.061 413.196 443.905 415.257C456.741 417.161 469.41 423.79 481.911 435.147L492.646 444.897C500.294 451.847 506.171 458.76 510.275 465.642C514.375 472.367 517.054 479.08 518.319 485.782C519.501 492.411 519.46 498.979 518.196 505.487C516.935 511.993 514.764 518.429 511.684 524.788C508.522 531.071 504.648 537.311 500.066 543.506C495.402 549.625 490.342 555.685 484.884 561.687L454.383 595.224L243.669 403.81ZM367.941 448.248C371.829 443.976 374.886 439.621 377.112 435.19C379.258 430.686 380.383 426.227 380.488 421.82C380.583 417.255 379.504 412.746 377.244 408.291C374.979 403.682 371.378 399.135 366.443 394.653L357.807 386.807C352.873 382.325 348.065 378.859 343.385 376.408C338.705 373.956 334.003 372.687 329.277 372.598C324.627 372.427 319.963 373.592 315.283 376.097C310.594 378.442 305.86 382.246 301.075 387.508L295.469 393.673L362.335 454.413L367.941 448.248ZM468.957 534.608C472.845 530.334 475.822 525.986 477.894 521.562C479.956 516.982 480.957 512.412 480.898 507.855C480.83 503.139 479.585 498.48 477.163 493.878C474.814 489.194 471.172 484.61 466.237 480.126L449.83 465.221C444.895 460.74 440.088 457.273 435.408 454.822C430.644 452.297 425.941 451.028 421.3 451.012C416.65 450.841 412.022 451.965 407.415 454.388C402.728 456.733 397.992 460.537 393.209 465.799L384.91 474.924L460.658 543.733L468.957 534.608Z" fill="url(#paint10_radial_1379_599)"/>
<path d="M97.4861 642.276L72.4736 692.74L327.634 819.061L345.541 782.931L261.137 741.143C248.189 734.735 235.666 728.72 223.565 723.101C211.515 717.384 200.413 712.259 190.256 707.727C180 703.145 170.914 699.205 162.998 695.907C155.083 692.608 148.786 690.046 144.107 688.227L145.513 685.39L331.324 729.034L343.46 704.549L195.982 583.562L197.388 580.725C201.672 583.344 207.525 586.799 214.948 591.092C222.37 595.387 231.011 600.224 240.874 605.602C250.634 610.929 261.417 616.703 273.221 622.918C285.073 629.033 297.474 635.296 310.421 641.707L394.825 683.492L412.735 647.36L157.575 521.038L133.081 570.459L219.323 644.578C228.994 652.59 238.44 659.808 247.659 666.233C256.78 672.607 265.377 678.661 273.451 684.391L272.859 685.585C263.404 682.642 253.375 679.475 242.777 676.085C232.076 672.648 220.609 669.511 208.369 666.676L97.4861 642.276Z" fill="url(#paint11_radial_1379_599)"/>
<path d="M13.6228 916.844L35.0534 813.572L68.3546 820.474L55.6925 881.492L139.109 898.781L148.893 851.632L182.194 858.534L172.41 905.683L267.906 925.478L280.905 862.829L314.209 869.733L292.439 974.636L13.6228 916.844Z" fill="url(#paint12_radial_1379_599)"/>
<path fill-rule="evenodd" clip-rule="evenodd" d="M0.0218534 1130.41L0.716668 1177.23L285.435 1173.01L284.807 1130.69L178.287 1132.27L178.047 1116.11L284.006 1076.71L283.327 1031.06L170.151 1078.4C163.971 1066.38 154.055 1057.37 140.405 1051.35C126.644 1045.33 108.928 1042.48 87.257 1042.8L80.0892 1042.91C67.1978 1043.1 56.272 1044.65 47.3117 1047.56C38.2401 1050.47 30.7383 1054.3 24.8065 1059.06C18.8731 1063.7 14.2283 1069.05 10.8722 1075.1C7.51458 1081.03 5.0499 1087.24 3.47863 1093.7C1.79446 1100.06 0.777898 1106.46 0.428955 1112.91C0.0784632 1119.25 -0.0572678 1125.08 0.0218534 1130.41ZM144.234 1107.11C145.978 1112.31 146.907 1118.68 147.019 1126.23L147.115 1132.73L31.5942 1134.44L31.4979 1127.95C31.3807 1120.06 32.117 1113.5 33.7065 1108.25C35.296 1103.01 37.7903 1098.8 41.1891 1095.64C44.5864 1092.37 48.9424 1090.03 54.2569 1088.62C59.5714 1087.21 65.8958 1086.44 73.2305 1086.34L95.7345 1086C105.292 1085.86 113.36 1086.46 119.938 1087.81C126.405 1089.16 131.663 1091.41 135.711 1094.57C139.648 1097.74 142.489 1101.92 144.234 1107.11Z" fill="url(#paint13_radial_1379_599)"/>
<path d="M378.845 1502.06L355.48 1464.59L141.147 1658.94L167.246 1700.8L436.333 1594.26L413.057 1556.93L204.955 1649.43L203.985 1647.88L378.845 1502.06Z" fill="url(#paint14_radial_1379_599)"/>
<path fill-rule="evenodd" clip-rule="evenodd" d="M1796.22 1525.1L1774.16 1562.78L2019.93 1706.5L2042.83 1667.38C2046.93 1660.38 2050.63 1653.41 2053.93 1646.46C2057.13 1639.45 2059.62 1632.54 2061.42 1625.74C2063.11 1618.88 2063.91 1612.14 2063.79 1605.51C2063.68 1598.88 2062.36 1592.45 2059.84 1586.21C2057.21 1579.91 2053.2 1573.9 2047.8 1568.16C2042.36 1562.28 2035.18 1556.73 2026.26 1551.51L2013.74 1544.19C1999.15 1535.67 1985.39 1531.8 1972.43 1532.59C1959.44 1533.23 1948.28 1538.99 1938.94 1549.88L1937.79 1549.2C1939.25 1544.52 1939.78 1539.43 1939.39 1533.93C1938.91 1528.37 1937.51 1522.85 1935.18 1517.37C1932.76 1511.83 1929.34 1506.56 1924.94 1501.53C1920.6 1496.42 1915.16 1491.96 1908.64 1488.14L1896.7 1481.16C1888.16 1476.16 1880.19 1473.05 1872.8 1471.82C1865.37 1470.43 1858.47 1470.45 1852.1 1471.88C1845.79 1473.2 1839.94 1475.71 1834.57 1479.39C1829.1 1483.01 1824.09 1487.28 1819.53 1492.21C1814.97 1497.14 1810.76 1502.46 1806.9 1508.18C1803.03 1513.9 1799.47 1519.54 1796.22 1525.1ZM1911.21 1565.9C1909.95 1570.69 1907.86 1575.59 1904.94 1580.57L1900.73 1587.76L1822.74 1542.16L1826.95 1534.96C1830.54 1528.83 1834.39 1524.13 1838.49 1520.86C1842.55 1517.45 1846.87 1515.34 1851.46 1514.55C1856.1 1513.66 1860.96 1513.93 1866.05 1515.36C1871.14 1516.79 1876.56 1519.19 1882.31 1522.55L1892.39 1528.44C1898.14 1531.81 1902.6 1535.51 1905.78 1539.56C1908.91 1543.44 1910.9 1547.63 1911.75 1552.12C1912.56 1556.45 1912.38 1561.05 1911.21 1565.9ZM2027.69 1629.57C2026.58 1634.33 2024.56 1639.2 2021.65 1644.18L2015.42 1654.82L1927.06 1603.16L1933.29 1592.52C1936.89 1586.38 1940.73 1581.68 1944.83 1578.42C1948.84 1575.1 1953.13 1573.04 1957.72 1572.25C1962.26 1571.3 1967.13 1571.57 1972.31 1573.06C1977.4 1574.48 1982.82 1576.88 1988.57 1580.25L2007.71 1591.44C2013.47 1594.81 2017.98 1598.54 2021.25 1602.64C2024.57 1606.64 2026.75 1610.94 2027.79 1615.54C2028.79 1619.99 2028.76 1624.66 2027.69 1629.57Z" fill="url(#paint15_radial_1379_599)"/>
<path d="M1655.21 1697.03L1624.21 1727.54L1762.59 1867.98C1772.42 1877.95 1781.56 1885.72 1790 1891.28C1798.45 1896.69 1806.32 1900.48 1813.61 1902.66C1820.9 1904.83 1827.58 1905.67 1833.63 1905.17C1839.69 1904.66 1845.24 1903.41 1850.28 1901.41C1855.25 1899.32 1859.67 1896.76 1863.55 1893.73C1867.5 1890.62 1870.94 1887.62 1873.87 1884.74C1876.8 1881.85 1879.85 1878.46 1883.03 1874.56C1886.2 1870.65 1888.87 1866.24 1891.03 1861.3C1893.19 1856.21 1894.57 1850.65 1895.16 1844.61C1895.84 1838.48 1895.14 1831.76 1893.08 1824.44C1891.01 1817.12 1887.3 1809.16 1881.94 1800.56C1876.59 1791.95 1869.03 1782.71 1859.29 1772.81L1720.9 1632.37L1690.25 1662.54L1836.71 1811.17C1842.95 1817.5 1847.74 1823.15 1851.08 1828.13C1854.5 1833.02 1856.71 1837.48 1857.7 1841.49C1858.69 1845.35 1858.58 1848.96 1857.38 1852.33C1856.18 1855.54 1854.07 1858.63 1851.06 1861.59C1848.05 1864.55 1844.93 1866.61 1841.7 1867.76C1838.47 1868.76 1834.93 1868.73 1831.09 1867.68C1827.25 1866.47 1822.94 1864.08 1818.18 1860.51C1813.41 1856.94 1807.91 1851.99 1801.67 1845.66L1655.21 1697.03Z" fill="url(#paint16_radial_1379_599)"/>
<path d="M1487.19 1818.16L1524.14 1795.82L1653.92 2010.24L1704.28 1979.79L1721.88 2008.88L1634.58 2061.66L1487.19 1818.16Z" fill="url(#paint17_radial_1379_599)"/>
<path d="M1447.1 2145.1C1452.29 2144.15 1457 2142.96 1461.2 2141.52C1479.68 2135.11 1492.11 2125.06 1498.48 2111.39C1504.85 2097.71 1504.34 2080.05 1496.94 2058.39L1488.44 2033.47L1451.04 2046.22L1460.03 2072.56C1461.86 2077.92 1462.88 2082.8 1463.09 2087.18C1463.37 2091.43 1463.01 2095.19 1462.01 2098.47C1461.08 2101.6 1459.62 2104.21 1457.63 2106.3C1455.61 2108.28 1453.28 2109.72 1450.65 2110.61C1446.55 2112.01 1442.79 2112.53 1439.38 2112.17C1436.04 2111.66 1432.9 2110.04 1429.96 2107.28C1427.03 2104.53 1424.19 2100.51 1421.44 2095.22C1418.8 2089.9 1416.05 2083.04 1413.18 2074.63L1371.19 1951.62C1368.25 1943 1366.27 1935.64 1365.24 1929.54C1364.32 1923.39 1364.21 1918.27 1364.92 1914.15C1365.59 1909.93 1367.1 1906.6 1369.44 1904.16C1371.78 1901.72 1374.84 1899.85 1378.62 1898.56C1384.94 1896.41 1390.98 1898.46 1396.75 1904.71C1402.52 1910.95 1407.94 1921.49 1413 1936.31L1417.68 1950.03L1450.82 1938.73C1449.97 1932.45 1448.98 1926.81 1447.85 1921.79C1446.8 1916.63 1445.28 1911.17 1443.31 1905.38C1440.65 1897.6 1437.19 1890.57 1432.93 1884.27C1428.78 1877.94 1423.61 1872.96 1417.43 1869.31C1411.32 1865.53 1404.14 1863.4 1395.88 1862.93C1387.68 1862.32 1378.22 1863.84 1367.49 1867.5C1363.39 1868.9 1359.03 1870.74 1354.4 1873.02C1349.89 1875.26 1345.57 1878.26 1341.44 1882.02C1337.29 1885.66 1333.61 1890.2 1330.42 1895.63C1327.22 1901.07 1325.02 1907.69 1323.81 1915.49C1322.56 1923.2 1322.54 1932.24 1323.73 1942.63C1324.9 1952.91 1327.79 1964.84 1332.42 1978.4L1364.99 2073.81C1369.58 2087.26 1374.55 2098.54 1379.88 2107.63C1385.29 2116.59 1390.8 2123.8 1396.43 2129.28C1402.16 2134.72 1407.94 2138.74 1413.75 2141.33C1419.64 2143.78 1425.38 2145.29 1430.97 2145.85C1436.67 2146.37 1442.04 2146.12 1447.1 2145.1Z" fill="url(#paint18_radial_1379_599)"/>
<path d="M1168.27 2103.91L1093.46 1920.3L1136.79 1916.25L1184.18 2048.54L1186.17 2048.35L1207.83 1909.6L1250.99 1905.56L1211.26 2099.89L1220.1 2194.29L1177.11 2198.32L1168.27 2103.91Z" fill="url(#paint19_radial_1379_599)"/>
<path d="M1048.66 1917.61L944.025 1903.92L907.063 2186.1L1013.35 2200L1017.77 2166.31L954.29 2158L966.951 2061.35L1014.72 2067.6L1019.14 2033.9L971.367 2027.65L982.424 1943.23L1044.25 1951.32L1048.66 1917.61Z" fill="url(#paint20_radial_1379_599)"/>
<path d="M787.508 1858.27L828.306 1872.4L746.199 2109.18L801.804 2128.44L790.667 2160.55L694.262 2127.17L787.508 1858.27Z" fill="url(#paint21_radial_1379_599)"/>
<path d="M680.505 1805.03L643.275 1783.17L499.045 2028.55L587.019 2080.2L604.245 2050.89L553.501 2021.1L680.505 1805.03Z" fill="url(#paint22_radial_1379_599)"/>
<path fill-rule="evenodd" clip-rule="evenodd" d="M325.611 1894.73C322.315 1891.59 319.008 1887.89 315.689 1883.64C312.291 1879.48 309.509 1874.75 307.345 1869.46C305.18 1864.17 303.787 1858.3 303.168 1851.88C302.708 1845.44 303.527 1838.39 305.633 1830.72C307.816 1823.13 311.638 1814.87 317.091 1805.95C322.625 1796.94 330.305 1787.3 340.131 1777.02L409.799 1704.13C419.703 1693.77 428.951 1685.7 437.544 1679.92C446.296 1674.14 454.418 1670.07 461.909 1667.7C469.479 1665.25 476.411 1664.18 482.707 1664.51C489.084 1664.92 494.891 1666.16 500.126 1668.24C505.519 1670.32 510.335 1672.92 514.574 1676.04C518.812 1679.16 522.538 1682.26 525.752 1685.33C528.807 1688.24 531.952 1691.71 535.187 1695.72C538.581 1699.73 541.396 1704.26 543.636 1709.31C546.031 1714.37 547.576 1720.07 548.273 1726.41C549.044 1732.68 548.38 1739.65 546.274 1747.32C544.249 1754.91 540.468 1763.2 534.937 1772.21C529.56 1781.21 521.844 1790.97 511.787 1801.49L442.119 1874.39C432.368 1884.59 423.118 1892.58 414.368 1898.36C405.693 1904.05 397.533 1908.17 389.887 1910.7C382.319 1913.15 375.228 1914.22 368.618 1913.9C362.165 1913.57 356.206 1912.49 350.738 1910.65C345.43 1908.81 340.657 1906.41 336.423 1903.44C332.19 1900.47 328.584 1897.57 325.611 1894.73ZM348.066 1871.24C351.121 1874.15 354.271 1876.16 357.519 1877.27C360.849 1878.45 364.464 1878.44 368.368 1877.25C372.351 1876.14 376.701 1873.84 381.417 1870.36C386.288 1866.87 391.797 1861.91 397.938 1855.48L487.414 1761.86C493.71 1755.28 498.567 1749.39 501.986 1744.21C505.485 1739.1 507.736 1734.49 508.744 1730.38C509.907 1726.27 509.862 1722.54 508.605 1719.19C507.428 1715.92 505.314 1712.82 502.261 1709.91C499.127 1706.91 495.856 1704.87 492.451 1703.77C489.046 1702.67 485.274 1702.75 481.136 1704.03C477.075 1705.22 472.534 1707.64 467.506 1711.29C462.562 1715.02 456.94 1720.18 450.646 1726.76L361.17 1820.38C355.027 1826.8 350.285 1832.49 346.939 1837.44C343.75 1842.38 341.69 1846.87 340.762 1850.9C339.833 1854.92 340.033 1858.57 341.367 1861.84C342.699 1865.11 344.932 1868.24 348.066 1871.24Z" fill="url(#paint23_radial_1379_599)"/>
<path fill-rule="evenodd" clip-rule="evenodd" d="M1750.48 1365.28C1785.42 1281.99 1804.73 1190.53 1804.73 1094.57C1804.73 707.595 1490.85 393.891 1103.65 393.891C716.461 393.891 402.58 707.595 402.58 1094.57C402.58 1190.53 421.883 1281.99 456.823 1365.28H31.5586C21.5016 1365.28 13.3489 1373.43 13.3489 1383.48C13.3489 1393.53 21.5016 1401.68 31.5586 1401.68H473.334C587.222 1634.72 826.68 1795.24 1103.65 1795.24C1380.63 1795.24 1620.08 1634.72 1733.97 1401.68H2175.75C2185.81 1401.68 2193.96 1393.53 2193.96 1383.48C2193.96 1373.43 2185.81 1365.28 2175.75 1365.28H1750.48ZM1710.79 1365.28C1747.75 1282.6 1768.31 1190.98 1768.31 1094.57C1768.31 727.697 1470.73 430.29 1103.65 430.29C736.574 430.29 439 727.697 439 1094.57C439 1190.98 459.552 1282.6 496.517 1365.28H1208.36V1201.88C1136.21 1279.97 1032.89 1328.88 918.145 1328.88C700.034 1328.88 523.222 1152.17 523.222 934.184C523.222 716.199 700.034 539.486 918.145 539.486C1032.89 539.486 1136.21 588.397 1208.36 666.494V646.407C1208.36 617.511 1231.8 594.084 1260.72 594.084C1289.63 594.084 1313.07 617.511 1313.07 646.407L1313.08 911.15L1313.07 911.232L1313.07 911.28C1313.07 911.332 1313.07 911.385 1313.07 911.435C1313.07 913.321 1314.6 914.847 1316.48 914.847C1318.37 914.847 1319.9 913.321 1319.9 911.435C1319.9 911.382 1319.89 911.33 1319.89 911.278C1319.89 911.234 1319.9 911.194 1319.9 911.15V590.672C1319.9 562.403 1342.83 539.486 1371.11 539.486C1399.4 539.486 1422.33 562.403 1422.33 590.672L1422.34 911.15C1422.33 911.246 1422.33 911.339 1422.33 911.435C1422.33 913.321 1423.85 914.847 1425.74 914.847C1427.63 914.847 1429.16 913.321 1429.16 911.435C1429.16 911.339 1429.16 911.246 1429.16 911.15V625.933C1429.16 598.293 1451.57 575.885 1479.23 575.885C1506.89 575.885 1529.31 598.293 1529.31 625.933V921.592L1472.48 974.368C1471.18 975.574 1471.11 977.603 1472.32 978.897C1473.09 979.725 1474.2 980.055 1475.23 979.869L1614.11 853.131C1634.39 834.624 1665.83 836.021 1684.39 856.25C1702.74 876.246 1701.67 907.247 1682 925.942L1590.25 1013.15C1590.25 1013.15 1587.14 1069.38 1577.11 1103.67C1565.28 1144.06 1530.17 1200.69 1530.17 1200.69L1529.31 1199.75V1365.28H1710.79ZM514.144 1401.68C520.197 1413.26 526.579 1424.64 533.281 1435.8H1674.03C1680.73 1424.64 1687.11 1413.26 1693.16 1401.68H514.144ZM1650.53 1472.2H1643.12V1482.69C1645.62 1479.22 1648.09 1475.72 1650.53 1472.2ZM1606.7 1528.74V1472.2H1540.69V1540.45H1596.33C1599.83 1536.59 1603.29 1532.69 1606.7 1528.74ZM1560.72 1576.85H1540.69V1595.06C1547.49 1589.12 1554.16 1583.05 1560.72 1576.85ZM1504.27 1624.66V1576.85H1435.98V1645.1H1475.71C1485.41 1638.53 1494.94 1631.72 1504.27 1624.66ZM1401.84 1688.4V1681.49H1331.28V1718.87C1355.49 1710.05 1379.04 1699.86 1401.84 1688.4ZM1294.86 1730.94V1681.49H1226.57V1747.51C1249.78 1743.17 1272.57 1737.63 1294.86 1730.94ZM980.739 1747.51V1681.49H912.452V1730.95C934.746 1737.63 957.531 1743.17 980.739 1747.51ZM876.033 1718.87V1681.49H807.747V1689.54C829.839 1700.54 852.629 1710.34 876.033 1718.87ZM731.598 1645.1H771.327V1576.85H703.041V1624.66C712.371 1631.72 721.892 1638.53 731.598 1645.1ZM666.621 1595.06V1576.85H646.59C653.144 1583.05 659.822 1589.13 666.621 1595.06ZM610.975 1540.45H666.621V1472.2H600.611V1528.75C604.021 1532.69 607.474 1536.59 610.975 1540.45ZM564.192 1482.69V1472.2H556.776C559.216 1475.72 561.688 1479.22 564.192 1482.69ZM876.033 1645.1H807.747V1576.85H876.033V1645.1ZM1017.16 1749.74V1681.49H1085.44V1749.74H1017.16ZM1121.86 1749.74H1190.15V1681.49H1121.86V1749.74ZM1399.56 1576.85H1331.28V1645.1H1399.56V1576.85ZM1331.28 1540.45H1399.56V1472.2H1331.28V1540.45ZM1226.57 1645.1H1294.86V1576.85H1226.57V1645.1ZM1190.15 1645.1V1576.85H1121.86V1645.1H1190.15ZM1226.57 1540.45H1294.86V1472.2H1226.57V1540.45ZM1190.15 1540.45H1121.86V1472.2H1190.15V1540.45ZM1085.44 1645.1H1017.16V1576.85H1085.44V1645.1ZM1085.44 1540.45V1472.2H1017.16V1540.45H1085.44ZM980.739 1645.1V1576.85H912.452V1645.1H980.739ZM980.739 1540.45H912.452V1472.2H980.739V1540.45ZM876.033 1540.45H807.747V1472.2H876.033V1540.45ZM1435.98 1540.45H1504.27V1472.2H1435.98V1540.45ZM771.327 1540.45V1472.2H703.041V1540.45H771.327ZM1238.6 1095C1262.94 1046.64 1276.65 992.01 1276.65 934.184C1276.65 919.845 1275.8 905.704 1274.17 891.804C1272.1 888.895 1254.38 865.256 1222.02 860.249C1168.68 851.998 1140.84 882.504 1110.53 915.711L1110.53 915.716L1110.52 915.723C1099.92 927.341 1089.01 939.289 1076.61 950.024L1076.84 952.038C1081.9 996.883 1084.79 1022.47 1092.69 1045.1C1100.61 1067.81 1113.64 1087.68 1139.61 1121.02C1176.68 1104.78 1199.86 1098.26 1238.6 1095ZM918.145 575.885C1063.79 575.885 1189.15 662.684 1245.26 787.349C1237.83 786.194 1169.39 775.979 1112.76 782.902C1086.96 786.055 1066.82 792.725 1049.32 801.599C1030.74 754.691 1015.54 724.992 992.828 702.29C969.667 679.141 938.954 663.533 889.856 643.925C890.48 626.224 891.789 613.198 894.668 601.746C896.917 592.808 900.143 584.745 904.848 576.128C909.259 575.967 913.693 575.885 918.145 575.885ZM888.047 600.081C885.029 612.079 883.692 625.487 883.055 643.038C803.215 661.669 755.173 683.964 684.118 733.186C682.48 732.287 680.82 731.418 679.14 730.579C646.486 714.261 627.181 727.574 622.319 731.723C683.181 643.07 782.899 583.153 896.933 576.501C893.002 584.243 890.129 591.793 888.047 600.081ZM988 707.115C1009.78 728.884 1024.59 757.619 1043.25 804.818C1025.5 814.653 1010.28 826.746 994.128 839.581L994.096 839.606C973.216 856.192 950.77 874.022 919.283 889.823C881.537 908.764 824.572 928.767 805.291 935.353C801.291 911.603 773.537 787.804 690.647 736.971C759.86 689.298 807.014 667.718 885.404 649.499C935.574 669.447 965.607 684.735 988 707.115ZM853.84 997.36C842.409 1015.93 810.36 1071.56 811.163 1110.49C812.087 1155.36 828.401 1180.05 853.273 1217.41C861.941 1230.43 873.8 1241.32 886.752 1250.33C1030.51 1212.28 1084.3 1183.38 1134.39 1125.42C1108.26 1091.9 1094.57 1071.24 1086.24 1047.35C1078.19 1024.29 1075.19 998.35 1070.33 955.245C1055.99 966.654 1039.57 976.258 1019.44 981.957C974.932 994.556 901.982 997.165 853.84 997.36ZM894.388 1255.36C930.546 1277.92 971.773 1287 975.859 1287.87C1088.33 1269.67 1183.26 1199.19 1234.88 1102.18C1199.23 1105.51 1177.03 1112.02 1141.48 1127.65C1090.18 1187.85 1036 1217.47 894.388 1255.36ZM799.887 1272.53C659.995 1223.7 559.641 1090.65 559.641 934.184C559.641 921.74 560.274 909.442 561.515 897.323C564.581 891.45 578.09 872.295 617.683 889.823C658.716 907.988 752.373 1015.7 772.966 1039.76C767.143 1048.28 723.579 1113.95 730.358 1160.54C735.065 1192.9 748.581 1210.26 767.439 1234.48C769.436 1237.05 771.493 1239.69 773.606 1242.43C790.764 1264.73 797.574 1270.86 799.887 1272.53Z" fill="url(#paint24_radial_1379_599)"/>
<defs>
<radialGradient id="paint0_radial_1379_599" cx="0" cy="0" r="1" gradientUnits="userSpaceOnUse" gradientTransform="translate(6.55463e-05 2200) rotate(-45) scale(3111.27 3035.26)">
<stop stop-color="#368227"/>
<stop offset="0.5" stop-color="#4AB74E"/>
<stop offset="1" stop-color="#75C92A"/>
</radialGradient>
<radialGradient id="paint1_radial_1379_599" cx="0" cy="0" r="1" gradientUnits="userSpaceOnUse" gradientTransform="translate(6.55463e-05 2200) rotate(-45) scale(3111.27 3035.26)">
<stop stop-color="#368227"/>
<stop offset="0.5" stop-color="#4AB74E"/>
<stop offset="1" stop-color="#75C92A"/>
</radialGradient>
<radialGradient id="paint2_radial_1379_599" cx="0" cy="0" r="1" gradientUnits="userSpaceOnUse" gradientTransform="translate(6.55463e-05 2200) rotate(-45) scale(3111.27 3035.26)">
<stop stop-color="#368227"/>
<stop offset="0.5" stop-color="#4AB74E"/>
<stop offset="1" stop-color="#75C92A"/>
</radialGradient>
<radialGradient id="paint3_radial_1379_599" cx="0" cy="0" r="1" gradientUnits="userSpaceOnUse" gradientTransform="translate(6.55463e-05 2200) rotate(-45) scale(3111.27 3035.26)">
<stop stop-color="#368227"/>
<stop offset="0.5" stop-color="#4AB74E"/>
<stop offset="1" stop-color="#75C92A"/>
</radialGradient>
<radialGradient id="paint4_radial_1379_599" cx="0" cy="0" r="1" gradientUnits="userSpaceOnUse" gradientTransform="translate(6.55463e-05 2200) rotate(-45) scale(3111.27 3035.26)">
<stop stop-color="#368227"/>
<stop offset="0.5" stop-color="#4AB74E"/>
<stop offset="1" stop-color="#75C92A"/>
</radialGradient>
<radialGradient id="paint5_radial_1379_599" cx="0" cy="0" r="1" gradientUnits="userSpaceOnUse" gradientTransform="translate(6.55463e-05 2200) rotate(-45) scale(3111.27 3035.26)">
<stop stop-color="#368227"/>
<stop offset="0.5" stop-color="#4AB74E"/>
<stop offset="1" stop-color="#75C92A"/>
</radialGradient>
<radialGradient id="paint6_radial_1379_599" cx="0" cy="0" r="1" gradientUnits="userSpaceOnUse" gradientTransform="translate(6.55463e-05 2200) rotate(-45) scale(3111.27 3035.26)">
<stop stop-color="#368227"/>
<stop offset="0.5" stop-color="#4AB74E"/>
<stop offset="1" stop-color="#75C92A"/>
</radialGradient>
<radialGradient id="paint7_radial_1379_599" cx="0" cy="0" r="1" gradientUnits="userSpaceOnUse" gradientTransform="translate(6.55463e-05 2200) rotate(-45) scale(3111.27 3035.26)">
<stop stop-color="#368227"/>
<stop offset="0.5" stop-color="#4AB74E"/>
<stop offset="1" stop-color="#75C92A"/>
</radialGradient>
<radialGradient id="paint8_radial_1379_599" cx="0" cy="0" r="1" gradientUnits="userSpaceOnUse" gradientTransform="translate(6.55463e-05 2200) rotate(-45) scale(3111.27 3035.26)">
<stop stop-color="#368227"/>
<stop offset="0.5" stop-color="#4AB74E"/>
<stop offset="1" stop-color="#75C92A"/>
</radialGradient>
<radialGradient id="paint9_radial_1379_599" cx="0" cy="0" r="1" gradientUnits="userSpaceOnUse" gradientTransform="translate(6.55463e-05 2200) rotate(-45) scale(3111.27 3035.26)">
<stop stop-color="#368227"/>
<stop offset="0.5" stop-color="#4AB74E"/>
<stop offset="1" stop-color="#75C92A"/>
</radialGradient>
<radialGradient id="paint10_radial_1379_599" cx="0" cy="0" r="1" gradientUnits="userSpaceOnUse" gradientTransform="translate(6.55463e-05 2200) rotate(-45) scale(3111.27 3035.26)">
<stop stop-color="#368227"/>
<stop offset="0.5" stop-color="#4AB74E"/>
<stop offset="1" stop-color="#75C92A"/>
</radialGradient>
<radialGradient id="paint11_radial_1379_599" cx="0" cy="0" r="1" gradientUnits="userSpaceOnUse" gradientTransform="translate(6.55463e-05 2200) rotate(-45) scale(3111.27 3035.26)">
<stop stop-color="#368227"/>
<stop offset="0.5" stop-color="#4AB74E"/>
<stop offset="1" stop-color="#75C92A"/>
</radialGradient>
<radialGradient id="paint12_radial_1379_599" cx="0" cy="0" r="1" gradientUnits="userSpaceOnUse" gradientTransform="translate(6.55463e-05 2200) rotate(-45) scale(3111.27 3035.26)">
<stop stop-color="#368227"/>
<stop offset="0.5" stop-color="#4AB74E"/>
<stop offset="1" stop-color="#75C92A"/>
</radialGradient>
<radialGradient id="paint13_radial_1379_599" cx="0" cy="0" r="1" gradientUnits="userSpaceOnUse" gradientTransform="translate(6.55463e-05 2200) rotate(-45) scale(3111.27 3035.26)">
<stop stop-color="#368227"/>
<stop offset="0.5" stop-color="#4AB74E"/>
<stop offset="1" stop-color="#75C92A"/>
</radialGradient>
<radialGradient id="paint14_radial_1379_599" cx="0" cy="0" r="1" gradientUnits="userSpaceOnUse" gradientTransform="translate(6.55463e-05 2200) rotate(-45) scale(3111.27 3035.26)">
<stop stop-color="#368227"/>
<stop offset="0.5" stop-color="#4AB74E"/>
<stop offset="1" stop-color="#75C92A"/>
</radialGradient>
<radialGradient id="paint15_radial_1379_599" cx="0" cy="0" r="1" gradientUnits="userSpaceOnUse" gradientTransform="translate(6.55463e-05 2200) rotate(-45) scale(3111.27 3035.26)">
<stop stop-color="#368227"/>
<stop offset="0.5" stop-color="#4AB74E"/>
<stop offset="1" stop-color="#75C92A"/>
</radialGradient>
<radialGradient id="paint16_radial_1379_599" cx="0" cy="0" r="1" gradientUnits="userSpaceOnUse" gradientTransform="translate(6.55463e-05 2200) rotate(-45) scale(3111.27 3035.26)">
<stop stop-color="#368227"/>
<stop offset="0.5" stop-color="#4AB74E"/>
<stop offset="1" stop-color="#75C92A"/>
</radialGradient>
<radialGradient id="paint17_radial_1379_599" cx="0" cy="0" r="1" gradientUnits="userSpaceOnUse" gradientTransform="translate(6.55463e-05 2200) rotate(-45) scale(3111.27 3035.26)">
<stop stop-color="#368227"/>
<stop offset="0.5" stop-color="#4AB74E"/>
<stop offset="1" stop-color="#75C92A"/>
</radialGradient>
<radialGradient id="paint18_radial_1379_599" cx="0" cy="0" r="1" gradientUnits="userSpaceOnUse" gradientTransform="translate(6.55463e-05 2200) rotate(-45) scale(3111.27 3035.26)">
<stop stop-color="#368227"/>
<stop offset="0.5" stop-color="#4AB74E"/>
<stop offset="1" stop-color="#75C92A"/>
</radialGradient>
<radialGradient id="paint19_radial_1379_599" cx="0" cy="0" r="1" gradientUnits="userSpaceOnUse" gradientTransform="translate(6.55463e-05 2200) rotate(-45) scale(3111.27 3035.26)">
<stop stop-color="#368227"/>
<stop offset="0.5" stop-color="#4AB74E"/>
<stop offset="1" stop-color="#75C92A"/>
</radialGradient>
<radialGradient id="paint20_radial_1379_599" cx="0" cy="0" r="1" gradientUnits="userSpaceOnUse" gradientTransform="translate(6.55463e-05 2200) rotate(-45) scale(3111.27 3035.26)">
<stop stop-color="#368227"/>
<stop offset="0.5" stop-color="#4AB74E"/>
<stop offset="1" stop-color="#75C92A"/>
</radialGradient>
<radialGradient id="paint21_radial_1379_599" cx="0" cy="0" r="1" gradientUnits="userSpaceOnUse" gradientTransform="translate(6.55463e-05 2200) rotate(-45) scale(3111.27 3035.26)">
<stop stop-color="#368227"/>
<stop offset="0.5" stop-color="#4AB74E"/>
<stop offset="1" stop-color="#75C92A"/>
</radialGradient>
<radialGradient id="paint22_radial_1379_599" cx="0" cy="0" r="1" gradientUnits="userSpaceOnUse" gradientTransform="translate(6.55463e-05 2200) rotate(-45) scale(3111.27 3035.26)">
<stop stop-color="#368227"/>
<stop offset="0.5" stop-color="#4AB74E"/>
<stop offset="1" stop-color="#75C92A"/>
</radialGradient>
<radialGradient id="paint23_radial_1379_599" cx="0" cy="0" r="1" gradientUnits="userSpaceOnUse" gradientTransform="translate(6.55463e-05 2200) rotate(-45) scale(3111.27 3035.26)">
<stop stop-color="#368227"/>
<stop offset="0.5" stop-color="#4AB74E"/>
<stop offset="1" stop-color="#75C92A"/>
</radialGradient>
<radialGradient id="paint24_radial_1379_599" cx="0" cy="0" r="1" gradientUnits="userSpaceOnUse" gradientTransform="translate(6.55463e-05 2200) rotate(-45) scale(3111.27 3035.26)">
<stop stop-color="#368227"/>
<stop offset="0.5" stop-color="#4AB74E"/>
<stop offset="1" stop-color="#75C92A"/>
</radialGradient>
</defs>
</svg>
